<?xml version="1.0" encoding="UTF-8" standalone="no"?>
<!-- Creator: CorelDRAW 2020 (64 Bit) -->

<svg
   xmlns:dc="http://purl.org/dc/elements/1.1/"
   xmlns:cc="http://creativecommons.org/ns#"
   xmlns:rdf="http://www.w3.org/1999/02/22-rdf-syntax-ns#"
   xmlns:svg="http://www.w3.org/2000/svg"
   xmlns="http://www.w3.org/2000/svg"
   xmlns:sodipodi="http://sodipodi.sourceforge.net/DTD/sodipodi-0.dtd"
   xmlns:inkscape="http://www.inkscape.org/namespaces/inkscape"
   xml:space="preserve"
   width="192px"
   height="70px"
   version="1.1"
   style="shape-rendering:geometricPrecision; text-rendering:geometricPrecision; image-rendering:optimizeQuality; fill-rule:evenodd; clip-rule:evenodd"
   viewBox="0 0 1725 629.28"
   id="svg108"
   sodipodi:docname="lg-PNCQ.svg"
   inkscape:version="0.92.3 (2405546, 2018-03-11)"><metadata
   id="metadata112"><rdf:RDF><cc:Work
       rdf:about=""><dc:format>image/svg+xml</dc:format><dc:type
         rdf:resource="http://purl.org/dc/dcmitype/StillImage" /></cc:Work></rdf:RDF></metadata><sodipodi:namedview
   pagecolor="#ffffff"
   bordercolor="#666666"
   borderopacity="1"
   objecttolerance="10"
   gridtolerance="10"
   guidetolerance="10"
   inkscape:pageopacity="0"
   inkscape:pageshadow="2"
   inkscape:window-width="1366"
   inkscape:window-height="719"
   id="namedview110"
   showgrid="false"
   inkscape:zoom="0.27397001"
   inkscape:cx="932.15069"
   inkscape:cy="273.36259"
   inkscape:window-x="0"
   inkscape:window-y="25"
   inkscape:window-maximized="1"
   inkscape:current-layer="_2202092672656" />
 <defs
   id="defs91">
  <style
   type="text/css"
   id="style89">
   <![CDATA[
    .fil0 {fill:#204D77}
    .fil1 {fill:#204D77;fill-rule:nonzero}
    .fil2 {fill:#204D77;fill-rule:nonzero}
   ]]>
  </style>
 </defs>
 <g
   id="Camada_x0020_2">
  <metadata
   id="CorelCorpID_0Corel-Layer" />
  <g
   id="_2202092672656">
   <g
   id="g102">
    <path
   class="fil0"
   d="M251.32 0c138.42,0 251.32,110.33 251.32,245.6 0,67.22 -27.88,128.27 -72.92,172.7l72.92 72.91 -251.21 0c-0.03,0 -0.07,0 -0.11,0 -138.42,0 -251.32,-110.33 -251.32,-245.61 0,-135.27 112.9,-245.6 251.32,-245.6zm1.98 73.51c97.19,0 176.45,77.46 176.45,172.44 0,47.19 -19.58,90.05 -51.19,121.24l51.19 51.19 -176.37 0c-0.02,0 -0.05,0.01 -0.08,0.01 -97.18,0 -176.45,-77.46 -176.45,-172.44 0,-94.98 79.27,-172.44 176.45,-172.44zm0 50.53c68.71,0 124.74,54.76 124.74,121.91 0,33.36 -13.84,63.66 -36.19,85.71l36.19 36.2 -124.68 0c-0.02,0 -0.04,0 -0.06,0 -68.7,0 -124.74,-54.77 -124.74,-121.91 0,-67.15 56.04,-121.91 124.74,-121.91zm-0.68 33.41c49.11,0 89.16,39.14 89.16,87.13 0,23.85 -9.89,45.51 -25.87,61.27l25.87 25.87 -89.12 0c-0.01,0 -0.03,0 -0.04,0 -49.11,0 -89.16,-39.15 -89.16,-87.14 0,-47.99 40.05,-87.13 89.16,-87.13zm0.68 40c27.34,0 49.63,21.79 49.63,48.5 0,26.71 -22.29,48.5 -49.63,48.5 -27.33,0 -49.62,-21.79 -49.62,-48.5 0,-26.71 22.29,-48.5 49.62,-48.5z"
   id="path94" />
    <path
   class="fil1"
   d="M576.08 340.93l0 -7.71 3.84 0c6.88,0 11.41,-1.14 13.6,-3.44 2.23,-2.27 3.33,-7.42 3.33,-15.43l0 -104.21c0,-8.55 -1.1,-13.93 -3.33,-16.05 -2.19,-2.16 -7.02,-3.22 -14.44,-3.22l-3 0 0 -7.93 62.64 0c18.94,0 33.6,3.87 44.02,11.63 10.42,7.75 15.65,18.57 15.65,32.5 0,13.2 -4.79,23.4 -14.41,30.53 -9.61,7.13 -23.33,10.72 -41.1,10.72l-24.71 0 0 45.63c0,8.26 1.09,13.56 3.25,15.83 2.2,2.3 6.69,3.44 13.57,3.44l3.95 0 0 7.71 -62.86 0zm42.09 -80.99l23.65 0c10.5,0 18.65,-2.92 24.43,-8.77 5.78,-5.85 8.66,-14.12 8.66,-24.76 0,-11.84 -2.81,-20.76 -8.41,-26.76 -5.63,-6 -14.04,-9 -25.19,-9 -9.1,0 -15.24,1.18 -18.39,3.55 -3.18,2.34 -4.75,7.68 -4.75,15.94l0 49.8zm123.58 -77l86 122.85 0 -86.21c0,-10.24 -1.72,-17.41 -5.19,-21.61 -3.47,-4.17 -9.33,-6.33 -17.63,-6.47l0 -8.56 55.29 0 0 8.56c-8.23,0.14 -14.08,2.3 -17.55,6.47 -3.51,4.2 -5.27,11.37 -5.27,21.61l0 124.9 -7.6 0 -93.28 -134.34 0 94.15c0,10.24 1.72,17.41 5.2,21.61 3.47,4.17 9.32,6.33 17.62,6.48l0 8.55 -55.28 0 0.11 -8.55c8.26,-0.15 14.15,-2.31 17.55,-6.48 3.43,-4.2 5.15,-11.37 5.15,-21.61l0 -104.24c-2.56,-2.85 -5.7,-5.01 -9.36,-6.51 -3.69,-1.5 -8.12,-2.41 -13.34,-2.7l-0.11 -7.9 37.69 0zm250.68 111.52l6.33 4.61c-6.36,15.21 -14.48,26.58 -24.39,34.11 -9.87,7.53 -21.65,11.3 -35.28,11.3 -20.22,0 -36.46,-7.21 -48.74,-21.65 -12.29,-14.4 -18.43,-33.56 -18.43,-57.4 0,-11.56 1.79,-22.75 5.34,-33.49 3.58,-10.72 8.77,-20.55 15.54,-29.4 5.59,-7.28 12.14,-12.83 19.7,-16.64 7.57,-3.84 15.62,-5.74 24.14,-5.74 3.32,0 7.05,0.4 11.18,1.17 4.1,0.81 8.78,2.01 14.08,3.66l18.21 -4.83 15.1 39.2 -5.67 3.54c-9.58,-12.14 -18.39,-20.98 -26.4,-26.5 -8.04,-5.53 -15.97,-8.3 -23.83,-8.3 -13.57,0 -24.57,6.18 -32.98,18.53 -8.45,12.36 -12.66,28.74 -12.66,49.14 0,22.09 4.79,39.79 14.41,53.09 9.62,13.31 22.19,19.97 37.77,19.97 9.91,0 18.68,-2.82 26.29,-8.45 7.6,-5.66 14.37,-14.29 20.29,-25.92zm121.68 28.26c5.86,-6.21 10.17,-14.26 12.95,-24.2 2.78,-9.91 4.17,-22.09 4.17,-36.53 0,-23.22 -3.95,-41.46 -11.81,-54.74 -7.86,-13.27 -18.69,-19.92 -32.4,-19.92 -14.48,0 -25.63,6.62 -33.49,19.82 -7.86,13.19 -11.81,32.06 -11.81,56.56 0,11.77 0.84,21.86 2.52,30.24 1.69,8.41 4.06,14.77 7.21,19.12 0.91,-5.48 3.36,-9.87 7.34,-13.13 3.95,-3.25 8.71,-4.86 14.3,-4.86 7.13,0 13.93,2.19 20.4,6.55 6.44,4.35 13.31,11.37 20.62,21.09zm41.03 26.36l3.51 4.17c-3.91,4.94 -8.23,8.63 -12.91,11.12 -4.68,2.52 -9.58,3.76 -14.73,3.76 -6.55,0 -12.14,-2.23 -16.71,-6.72 -4.57,-4.5 -8.04,-11.19 -10.5,-20.04 -2.26,1.06 -4.75,1.87 -7.49,2.38 -2.71,0.47 -5.78,0.73 -9.22,0.73 -8.19,0 -15.86,-1.43 -22.99,-4.24 -7.17,-2.82 -13.86,-7.13 -20.15,-12.91 -8.7,-8.04 -15.17,-17.33 -19.38,-27.79 -4.2,-10.46 -6.32,-22.56 -6.32,-36.27 0,-12.83 1.97,-24.57 5.88,-35.14 3.95,-10.57 9.8,-19.92 17.59,-28.04 6.25,-6.58 13.23,-11.59 20.91,-14.99 7.68,-3.44 15.69,-5.16 24.06,-5.16 8.56,0 16.75,1.83 24.57,5.52 7.83,3.66 15.25,9.14 22.23,16.46 6.73,7.05 11.92,15.94 15.65,26.65 3.7,10.71 5.56,22.31 5.56,34.7 0,14.95 -2.89,28.41 -8.63,40.4 -5.74,12 -13.89,21.58 -24.49,28.71 4.02,7.2 7.78,12.46 11.36,15.72 3.59,3.29 7.32,4.93 11.27,4.93 1.64,0 3.4,-0.33 5.23,-1.02 1.86,-0.66 3.76,-1.65 5.7,-2.93zm-54 -15.64c-1.87,-8.85 -5.38,-15.98 -10.61,-21.32 -5.19,-5.38 -11.08,-8.04 -17.66,-8.04 -4.2,0 -7.71,1.27 -10.49,3.87 -2.78,2.56 -4.17,5.74 -4.17,9.51 0,5.3 2.71,9.91 8.08,13.86 5.37,3.91 12.03,5.88 19.96,5.88 3,0 5.71,-0.29 8.16,-0.91 2.41,-0.62 4.68,-1.54 6.73,-2.85z"
   id="path96" />
    <path
   class="fil1"
   d="M583 487.79l0 -3.83 1.9 0c3.42,0 5.67,-0.56 6.76,-1.71 1.11,-1.12 1.65,-3.68 1.65,-7.66l0 -51.75c0,-4.25 -0.54,-6.92 -1.65,-7.97 -1.09,-1.08 -3.49,-1.6 -7.17,-1.6l-1.49 0 0 -3.94 31.1 0c9.41,0 16.69,1.92 21.86,5.77 5.18,3.85 7.78,9.23 7.78,16.14 0,6.56 -2.38,11.63 -7.16,15.17 -4.77,3.54 -11.58,5.32 -20.41,5.32l-12.27 0 0 22.66c0,4.1 0.54,6.74 1.61,7.86 1.09,1.15 3.33,1.71 6.74,1.71l1.96 0 0 3.83 -31.21 0zm20.9 -40.22l11.75 0c5.21,0 9.26,-1.45 12.13,-4.36 2.87,-2.91 4.3,-7.01 4.3,-12.29 0,-5.89 -1.4,-10.32 -4.18,-13.29 -2.79,-2.98 -6.97,-4.47 -12.51,-4.47 -4.52,0 -7.57,0.58 -9.13,1.76 -1.58,1.16 -2.36,3.81 -2.36,7.92l0 24.73zm43.45 -4.9l0 -2.82 16.54 -5.1 0 11.53c3.23,-4.29 6.23,-7.45 9.01,-9.5 2.76,-2.03 5.45,-3.05 8.08,-3.05 2.23,0 3.94,0.51 5.1,1.51 1.18,1.02 1.76,2.49 1.76,4.39 0,1.46 -0.43,2.6 -1.3,3.44 -0.87,0.83 -2.07,1.25 -3.6,1.25 -1.05,0 -2.45,-0.33 -4.17,-0.98 -1.71,-0.66 -2.93,-0.98 -3.64,-0.98 -1.92,0 -3.76,0.71 -5.48,2.1 -1.74,1.4 -3.6,3.67 -5.54,6.83l0 23.41c0,4.43 0.62,7.08 1.83,7.95 1.22,0.87 4.02,1.31 8.4,1.31l1.21 0 0 3.83 -27.98 0 0 -3.83c3.3,-0.07 5.52,-0.64 6.64,-1.67 1.15,-1.05 1.71,-3.61 1.71,-7.7l0 -23.08c0,-3.49 -0.56,-5.78 -1.71,-6.9 -1.12,-1.13 -3.41,-1.76 -6.86,-1.94zm66.73 -4.12c-4.39,0 -7.95,2.21 -10.64,6.62 -2.7,4.43 -4.05,10.33 -4.05,17.73 0,7.1 1.29,12.72 3.85,16.85 2.58,4.12 6.05,6.17 10.41,6.17 4.3,0 7.7,-2.2 10.18,-6.61 2.51,-4.41 3.76,-10.46 3.76,-18.18 0,-7.13 -1.18,-12.69 -3.56,-16.65 -2.37,-3.96 -5.7,-5.93 -9.95,-5.93zm-24.31 23.65c0,-7.8 2.3,-14.25 6.94,-19.35 4.63,-5.11 10.45,-7.67 17.48,-7.67 6.63,0 12.2,2.62 16.71,7.85 4.5,5.23 6.75,11.69 6.75,19.39 0,7.63 -2.36,14.02 -7.1,19.18 -4.74,5.16 -10.58,7.73 -17.54,7.73 -6.59,0 -12.11,-2.57 -16.56,-7.73 -4.45,-5.16 -6.68,-11.62 -6.68,-19.4zm73.78 25.28c-4.11,1.16 -7.27,2.62 -9.46,4.32 -2.2,1.73 -3.31,3.62 -3.31,5.67 0,2.52 1.42,4.48 4.23,5.88 2.82,1.4 6.76,2.11 11.79,2.11 5.68,0 10.02,-0.67 13.04,-2.02 3.01,-1.36 4.52,-3.3 4.52,-5.86 0,-2.05 -0.89,-3.72 -2.65,-5.03 -1.78,-1.29 -4.64,-2.33 -8.57,-3.11l-9.59 -1.96zm-7.61 -32.9c0,4.81 0.92,8.51 2.76,11.11 1.85,2.6 4.48,3.9 7.88,3.9 3.7,0 6.52,-1.27 8.44,-3.81 1.95,-2.56 2.91,-6.24 2.91,-11.09 0,-4.74 -1.02,-8.5 -3.07,-11.26 -2.03,-2.76 -4.76,-4.14 -8.17,-4.14 -3.09,0 -5.65,1.43 -7.68,4.3 -2.05,2.87 -3.07,6.54 -3.07,10.99zm3.89 17.74c-1.82,0.6 -2.98,1.11 -3.49,1.51 -0.53,0.41 -0.78,0.92 -0.78,1.58 0,0.8 0.43,1.49 1.32,2.03 0.89,0.56 2.36,1.03 4.38,1.42l14.38 2.92c5.57,1.18 9.72,2.87 12.42,5.08 2.71,2.22 4.07,5 4.07,8.34 0,4.5 -2.25,7.99 -6.74,10.48 -4.48,2.48 -10.82,3.72 -19.01,3.72 -7.17,0 -13.02,-1.07 -17.58,-3.2 -4.56,-2.12 -6.84,-4.77 -6.84,-7.91 0,-2.56 1.41,-4.94 4.24,-7.12 2.84,-2.18 6.62,-3.78 11.34,-4.81l0 -0.75c-3.31,-0.56 -5.89,-1.49 -7.76,-2.8 -1.87,-1.28 -2.79,-2.75 -2.79,-4.39 0,-1.31 0.6,-2.52 1.81,-3.63 1.2,-1.13 3.62,-2.56 7.25,-4.34 -3.2,-2.34 -5.49,-4.76 -6.87,-7.23 -1.38,-2.49 -2.07,-5.37 -2.07,-8.68 0,-5.35 1.86,-9.79 5.56,-13.33 3.71,-3.52 8.46,-5.28 14.24,-5.28 2.23,0 4.37,0.31 6.44,0.94 2.05,0.64 4.16,1.62 6.34,2.95 1.98,-1.6 3.72,-2.77 5.23,-3.47 1.51,-0.71 2.92,-1.06 4.23,-1.06 1.6,0 2.82,0.44 3.69,1.31 0.87,0.87 1.3,2.07 1.3,3.62 0,1.36 -0.32,2.41 -0.98,3.15 -0.65,0.75 -1.59,1.13 -2.79,1.13 -1.27,0 -2.51,-0.51 -3.69,-1.51 -1.2,-1.01 -1.83,-1.52 -1.89,-1.52 -0.14,0 -0.38,0.07 -0.71,0.22 -0.3,0.14 -0.83,0.41 -1.58,0.85 1.67,1.92 2.87,3.78 3.6,5.57 0.73,1.8 1.09,3.71 1.09,5.71 0,5.52 -1.91,10.18 -5.72,14 -3.81,3.81 -8.48,5.72 -13.98,5.72 -1.13,0 -2.33,-0.09 -3.6,-0.29 -1.25,-0.21 -2.61,-0.51 -4.06,-0.93zm36.86 -29.65l0 -2.82 16.54 -5.1 0 11.53c3.23,-4.29 6.23,-7.45 9.01,-9.5 2.76,-2.03 5.44,-3.05 8.08,-3.05 2.23,0 3.94,0.51 5.1,1.51 1.18,1.02 1.76,2.49 1.76,4.39 0,1.46 -0.43,2.6 -1.31,3.44 -0.87,0.83 -2.07,1.25 -3.59,1.25 -1.05,0 -2.45,-0.33 -4.18,-0.98 -1.7,-0.66 -2.92,-0.98 -3.63,-0.98 -1.92,0 -3.76,0.71 -5.48,2.1 -1.75,1.4 -3.6,3.67 -5.54,6.83l0 23.41c0,4.43 0.61,7.08 1.83,7.95 1.22,0.87 4.01,1.31 8.39,1.31l1.22 0 0 3.83 -27.98 0 0 -3.83c3.3,-0.07 5.51,-0.64 6.64,-1.67 1.14,-1.05 1.71,-3.61 1.71,-7.7l0 -23.08c0,-3.49 -0.57,-5.78 -1.71,-6.9 -1.13,-1.13 -3.41,-1.76 -6.86,-1.94zm72.36 35.97l0 -18.83c-6.21,1.78 -10.99,4.12 -14.31,7.08 -3.34,2.94 -5.01,6.23 -5.01,9.88 0,2.34 0.71,4.23 2.12,5.65 1.42,1.41 3.34,2.12 5.76,2.12 1.49,0 3.16,-0.49 5.03,-1.45 1.85,-0.98 3.99,-2.47 6.41,-4.45zm13.84 3.52l2.17 2.13c-1.19,1.68 -2.54,2.96 -3.99,3.79 -1.45,0.84 -3.07,1.25 -4.83,1.25 -1.96,0 -3.5,-0.54 -4.63,-1.61 -1.14,-1.09 -1.93,-2.76 -2.34,-5.03 -2.2,2.12 -4.67,3.74 -7.38,4.86 -2.72,1.11 -5.59,1.68 -8.64,1.68 -3.98,0 -7.19,-1.13 -9.64,-3.38 -2.45,-2.25 -3.67,-5.21 -3.67,-8.86 0,-4.62 2.36,-8.63 7.1,-12.04 4.74,-3.44 12.08,-6.41 22.01,-8.97l0 -5.8c0,-3.83 -0.67,-6.66 -2.02,-8.53 -1.36,-1.87 -3.41,-2.8 -6.17,-2.8 -2.03,0 -3.58,0.38 -4.67,1.15 -1.07,0.76 -2.14,2.41 -3.16,4.97 -0.99,2.38 -1.92,3.91 -2.78,4.58 -0.83,0.67 -1.99,1.02 -3.45,1.02 -1.48,0 -2.7,-0.46 -3.66,-1.37 -0.96,-0.91 -1.44,-2.07 -1.44,-3.48 0,-2.8 1.85,-5.25 5.54,-7.38 3.69,-2.1 8.23,-3.16 13.62,-3.16 6.17,0 10.46,1.17 12.89,3.51 2.44,2.34 3.65,6.52 3.65,12.51l0 29.09c0,1.53 0.15,2.56 0.42,3.09 0.29,0.52 0.76,0.8 1.45,0.8 0.42,0 0.89,-0.15 1.44,-0.46 0.52,-0.31 1.25,-0.81 2.18,-1.56zm21.31 -34.26l0 27.82c0,3.83 0.44,6.15 1.31,6.97 0.87,0.82 2.62,1.25 5.23,1.32l0 3.78 -22.01 0 0 -3.78c2.87,-0.21 4.8,-0.83 5.8,-1.87 0.99,-1.01 1.48,-3.54 1.48,-7.53l0 -23.1c0,-3.47 -0.52,-5.76 -1.59,-6.86 -1.06,-1.09 -3.2,-1.75 -6.43,-1.97l0 -2.81 16 -5.12 0 8.95c3.56,-3.09 6.64,-5.28 9.28,-6.57 2.65,-1.29 5.21,-1.95 7.7,-1.95 2.94,0 5.46,0.75 7.55,2.24 2.09,1.49 3.65,3.68 4.68,6.59 4.11,-3.29 7.52,-5.59 10.21,-6.88 2.69,-1.29 5.28,-1.95 7.77,-1.95 4.65,0 8.05,1.62 10.19,4.87 2.14,3.25 3.21,8.48 3.21,15.73l0 20.57c0,3.38 0.44,5.45 1.31,6.25 0.87,0.8 2.71,1.25 5.5,1.36l0.06 3.83 -22.36 0 0 -3.78c2.87,-0.25 4.78,-0.87 5.71,-1.88 0.92,-1.02 1.38,-3.38 1.38,-7.11l0 -21.44c0,-4.29 -0.68,-7.41 -2,-9.35 -1.33,-1.95 -3.47,-2.93 -6.41,-2.93 -1.98,0 -4.09,0.55 -6.32,1.66 -2.24,1.09 -4.6,2.74 -7.08,4.94l0 28.45c0,3.38 0.45,5.47 1.36,6.28 0.9,0.82 2.74,1.27 5.5,1.38l0 3.78 -22.35 0 0.05 -3.83c2.8,-0.22 4.69,-0.82 5.65,-1.83 0.96,-1.02 1.43,-3.38 1.43,-7.11l0 -21.44c0,-4.36 -0.67,-7.48 -1.99,-9.41 -1.33,-1.9 -3.47,-2.87 -6.41,-2.87 -1.91,0 -3.96,0.55 -6.14,1.62 -2.18,1.09 -4.61,2.74 -7.27,4.98zm101.04 30.74l0 -18.83c-6.21,1.78 -10.99,4.12 -14.31,7.08 -3.34,2.94 -5.01,6.23 -5.01,9.88 0,2.34 0.71,4.23 2.12,5.65 1.42,1.41 3.34,2.12 5.76,2.12 1.49,0 3.16,-0.49 5.03,-1.45 1.85,-0.98 3.99,-2.47 6.41,-4.45zm13.84 3.52l2.18 2.13c-1.2,1.68 -2.55,2.96 -4,3.79 -1.45,0.84 -3.07,1.25 -4.83,1.25 -1.96,0 -3.5,-0.54 -4.63,-1.61 -1.14,-1.09 -1.92,-2.76 -2.34,-5.03 -2.2,2.12 -4.67,3.74 -7.38,4.86 -2.72,1.11 -5.59,1.68 -8.64,1.68 -3.98,0 -7.19,-1.13 -9.64,-3.38 -2.45,-2.25 -3.67,-5.21 -3.67,-8.86 0,-4.62 2.36,-8.63 7.1,-12.04 4.74,-3.44 12.08,-6.41 22.01,-8.97l0 -5.8c0,-3.83 -0.67,-6.66 -2.02,-8.53 -1.36,-1.87 -3.41,-2.8 -6.17,-2.8 -2.03,0 -3.58,0.38 -4.67,1.15 -1.07,0.76 -2.14,2.41 -3.16,4.97 -0.99,2.38 -1.92,3.91 -2.77,4.58 -0.84,0.67 -2,1.02 -3.45,1.02 -1.49,0 -2.71,-0.46 -3.67,-1.37 -0.96,-0.91 -1.44,-2.07 -1.44,-3.48 0,-2.8 1.85,-5.25 5.54,-7.38 3.69,-2.1 8.23,-3.16 13.62,-3.16 6.17,0 10.46,1.17 12.89,3.51 2.44,2.34 3.65,6.52 3.65,12.51l0 29.09c0,1.53 0.15,2.56 0.42,3.09 0.29,0.52 0.76,0.8 1.45,0.8 0.42,0 0.89,-0.15 1.44,-0.46 0.53,-0.31 1.25,-0.81 2.18,-1.56zm49.93 -72.83l42.71 61.01 0 -42.82c0,-5.08 -0.85,-8.64 -2.58,-10.73 -1.72,-2.07 -4.63,-3.14 -8.75,-3.21l0 -4.25 27.46 0 0 4.25c-4.09,0.07 -6.99,1.14 -8.72,3.21 -1.74,2.09 -2.61,5.65 -2.61,10.73l0 62.03 -3.78 0 -46.32 -66.71 0 46.75c0,5.09 0.85,8.65 2.58,10.74 1.72,2.07 4.63,3.14 8.75,3.21l0 4.25 -27.46 0 0.06 -4.25c4.1,-0.07 7.02,-1.14 8.71,-3.21 1.71,-2.09 2.56,-5.65 2.56,-10.74l0 -51.76c-1.27,-1.42 -2.83,-2.49 -4.65,-3.24 -1.83,-0.74 -4.03,-1.2 -6.62,-1.34l-0.06 -3.92 18.72 0zm90.72 69.31l0 -18.83c-6.21,1.78 -10.98,4.12 -14.3,7.08 -3.35,2.94 -5.02,6.23 -5.02,9.88 0,2.34 0.71,4.23 2.13,5.65 1.41,1.41 3.34,2.12 5.75,2.12 1.49,0 3.16,-0.49 5.03,-1.45 1.86,-0.98 4,-2.47 6.41,-4.45zm13.84 3.52l2.18 2.13c-1.2,1.68 -2.54,2.96 -3.99,3.79 -1.46,0.84 -3.07,1.25 -4.84,1.25 -1.96,0 -3.5,-0.54 -4.63,-1.61 -1.14,-1.09 -1.92,-2.76 -2.34,-5.03 -2.19,2.12 -4.66,3.74 -7.37,4.86 -2.72,1.11 -5.59,1.68 -8.64,1.68 -3.98,0 -7.19,-1.13 -9.65,-3.38 -2.45,-2.25 -3.67,-5.21 -3.67,-8.86 0,-4.62 2.37,-8.63 7.11,-12.04 4.74,-3.44 12.07,-6.41 22,-8.97l0 -5.8c0,-3.83 -0.67,-6.66 -2.01,-8.53 -1.36,-1.87 -3.42,-2.8 -6.18,-2.8 -2.03,0 -3.57,0.38 -4.66,1.15 -1.07,0.76 -2.15,2.41 -3.16,4.97 -1,2.38 -1.93,3.91 -2.78,4.58 -0.84,0.67 -2,1.02 -3.45,1.02 -1.49,0 -2.71,-0.46 -3.67,-1.37 -0.96,-0.91 -1.43,-2.07 -1.43,-3.48 0,-2.8 1.85,-5.25 5.54,-7.38 3.68,-2.1 8.22,-3.16 13.61,-3.16 6.18,0 10.46,1.17 12.9,3.51 2.43,2.34 3.65,6.52 3.65,12.51l0 29.09c0,1.53 0.14,2.56 0.41,3.09 0.3,0.52 0.77,0.8 1.46,0.8 0.41,0 0.89,-0.15 1.43,-0.46 0.53,-0.31 1.25,-0.81 2.18,-1.56zm47.12 -7.99l3.09 2.09c-2.91,4.36 -6.12,7.64 -9.66,9.86 -3.52,2.22 -7.37,3.32 -11.51,3.32 -3.27,0 -6.09,-0.49 -8.47,-1.47 -2.37,-0.96 -4.62,-2.56 -6.75,-4.75 -2.56,-2.58 -4.5,-5.54 -5.87,-8.83 -1.34,-3.31 -2.01,-6.74 -2.01,-10.33 0,-3.51 0.56,-6.9 1.71,-10.21 1.12,-3.3 2.78,-6.34 4.94,-9.1 2.63,-3.34 5.48,-5.82 8.55,-7.49 3.07,-1.68 6.35,-2.51 9.86,-2.51 4.61,0 8.64,1.11 12.09,3.32 3.43,2.22 5.16,4.69 5.16,7.43 0,1.49 -0.44,2.69 -1.33,3.58 -0.89,0.9 -2.05,1.36 -3.47,1.36 -1.38,0 -2.52,-0.35 -3.39,-1.02 -0.89,-0.67 -1.8,-1.98 -2.72,-3.92 -1.42,-2.87 -2.76,-4.74 -4.02,-5.59 -1.25,-0.86 -2.9,-1.28 -4.92,-1.28 -3.68,0 -6.7,1.98 -9.02,5.96 -2.33,3.98 -3.49,9.23 -3.49,15.76 0,7.38 1.38,13.11 4.12,17.23 2.76,4.13 6.56,6.18 11.42,6.18 2.8,0 5.49,-0.78 8.07,-2.34 2.57,-1.57 5.12,-3.98 7.62,-7.25zm13.29 -61.03c0,-1.63 0.57,-3 1.68,-4.08 1.12,-1.11 2.5,-1.66 4.17,-1.66 1.67,0 3.07,0.55 4.2,1.66 1.14,1.08 1.7,2.45 1.7,4.08 0,1.71 -0.56,3.16 -1.7,4.34 -1.13,1.18 -2.53,1.78 -4.2,1.78 -1.67,0 -3.05,-0.58 -4.17,-1.76 -1.11,-1.16 -1.68,-2.62 -1.68,-4.36zm10.12 22.25l0 39.42c0,4.16 0.43,6.7 1.32,7.66 0.9,0.96 2.64,1.47 5.22,1.54l0 3.78 -22.45 0 0.06 -3.83c2.83,-0.18 4.75,-0.78 5.77,-1.82 1,-1.01 1.51,-3.54 1.51,-7.55l0 -22.46c0,-3.47 -0.53,-5.76 -1.56,-6.87 -1.06,-1.09 -3.18,-1.74 -6.41,-1.96l0 -2.81 16.54 -5.1zm37.19 3.16c-4.4,0 -7.96,2.21 -10.64,6.62 -2.71,4.43 -4.05,10.33 -4.05,17.73 0,7.1 1.29,12.72 3.85,16.85 2.57,4.12 6.04,6.17 10.4,6.17 4.3,0 7.7,-2.2 10.19,-6.61 2.51,-4.41 3.76,-10.46 3.76,-18.18 0,-7.13 -1.18,-12.69 -3.56,-16.65 -2.38,-3.96 -5.7,-5.93 -9.95,-5.93zm-24.32 23.65c0,-7.8 2.31,-14.25 6.94,-19.35 4.63,-5.11 10.46,-7.67 17.49,-7.67 6.62,0 12.2,2.62 16.7,7.85 4.51,5.23 6.76,11.69 6.76,19.39 0,7.63 -2.36,14.02 -7.1,19.18 -4.74,5.16 -10.59,7.73 -17.54,7.73 -6.6,0 -12.12,-2.57 -16.56,-7.73 -4.45,-5.16 -6.69,-11.62 -6.69,-19.4zm53.73 25.59l0 -3.78c2.87,-0.21 4.8,-0.83 5.8,-1.87 1,-1.01 1.49,-3.54 1.49,-7.53l0 -23.1c0,-3.58 -0.53,-5.88 -1.6,-6.92 -1.05,-1.02 -3.2,-1.65 -6.43,-1.91l0 -2.81 16 -5.12 0 8.95c3.59,-3.12 6.68,-5.32 9.28,-6.61 2.61,-1.27 5.17,-1.91 7.7,-1.91 4.68,0 8.08,1.62 10.2,4.87 2.13,3.25 3.2,8.48 3.2,15.73l0 20.57c0,3.38 0.45,5.47 1.36,6.3 0.91,0.84 2.74,1.29 5.5,1.36l0 3.78 -22.35 0 0.05 -3.83c2.94,-0.26 4.87,-0.82 5.76,-1.73 0.89,-0.9 1.32,-2.83 1.32,-5.77l0 -22.88c0,-4.36 -0.67,-7.48 -1.99,-9.41 -1.33,-1.9 -3.47,-2.87 -6.41,-2.87 -1.91,0 -3.96,0.55 -6.14,1.62 -2.18,1.09 -4.61,2.74 -7.26,4.98l0 26.6c0,4.47 0.43,7.15 1.3,8.04 0.87,0.91 2.62,1.4 5.23,1.47l0 3.78 -22.01 0zm86.18 -9.15l0 -18.83c-6.2,1.78 -10.98,4.12 -14.3,7.08 -3.34,2.94 -5.02,6.23 -5.02,9.88 0,2.34 0.71,4.23 2.13,5.65 1.42,1.41 3.34,2.12 5.76,2.12 1.48,0 3.16,-0.49 5.03,-1.45 1.85,-0.98 3.99,-2.47 6.4,-4.45zm13.84 3.52l2.18 2.13c-1.2,1.68 -2.54,2.96 -3.99,3.79 -1.46,0.84 -3.07,1.25 -4.83,1.25 -1.96,0 -3.51,-0.54 -4.63,-1.61 -1.15,-1.09 -1.93,-2.76 -2.35,-5.03 -2.19,2.12 -4.66,3.74 -7.37,4.86 -2.72,1.11 -5.59,1.68 -8.64,1.68 -3.98,0 -7.19,-1.13 -9.64,-3.38 -2.46,-2.25 -3.67,-5.21 -3.67,-8.86 0,-4.62 2.36,-8.63 7.1,-12.04 4.74,-3.44 12.07,-6.41 22,-8.97l0 -5.8c0,-3.83 -0.67,-6.66 -2.01,-8.53 -1.36,-1.87 -3.41,-2.8 -6.17,-2.8 -2.04,0 -3.58,0.38 -4.67,1.15 -1.07,0.76 -2.14,2.41 -3.16,4.97 -1,2.38 -1.92,3.91 -2.78,4.58 -0.83,0.67 -2,1.02 -3.45,1.02 -1.49,0 -2.7,-0.46 -3.67,-1.37 -0.96,-0.91 -1.43,-2.07 -1.43,-3.48 0,-2.8 1.85,-5.25 5.54,-7.38 3.68,-2.1 8.22,-3.16 13.62,-3.16 6.17,0 10.45,1.17 12.89,3.51 2.43,2.34 3.65,6.52 3.65,12.51l0 29.09c0,1.53 0.15,2.56 0.42,3.09 0.29,0.52 0.76,0.8 1.45,0.8 0.42,0 0.89,-0.15 1.43,-0.46 0.53,-0.31 1.26,-0.81 2.18,-1.56zm6.27 5.63l0.05 -3.83c2.84,-0.18 4.76,-0.78 5.78,-1.82 1,-1.01 1.5,-3.54 1.5,-7.55l0 -49.1c0,-3.4 -0.54,-5.67 -1.61,-6.78 -1.09,-1.12 -3.23,-1.81 -6.47,-2.1l0 -2.82 16.55 -5.21 0 66.23c0,4.12 0.45,6.64 1.36,7.61 0.89,0.96 2.63,1.48 5.17,1.59l0 3.78 -22.33 0z"
   id="path98" />
    <path
   class="fil1"
   d="M628.63 611.89l0 3.88 -5.01 0c-0.98,0 -2.14,0.04 -3.45,0.11 -1.31,0.07 -3.1,0.2 -5.37,0.42l-0.75 -6.18c-1.98,2.35 -4.19,4.13 -6.63,5.36 -2.43,1.22 -4.99,1.84 -7.68,1.84 -5.57,0 -10.37,-2.64 -14.41,-7.88 -4.05,-5.25 -6.07,-11.63 -6.07,-19.14 0,-7.89 1.94,-14.44 5.85,-19.69 3.9,-5.25 8.71,-7.88 14.41,-7.88 2.49,0 4.94,0.53 7.36,1.6 2.4,1.05 4.79,2.65 7.17,4.78l0 -15.64c0,-3.8 -0.52,-6.17 -1.6,-7.15 -1.05,-0.97 -3.3,-1.53 -6.7,-1.67l0 -2.87 16.55 -5.22 0 66.81c0,3.65 0.41,5.94 1.27,6.85 0.85,0.9 2.54,1.45 5.06,1.67zm-14.58 -5.8l0 -32.52c-1.67,-1.8 -3.48,-3.21 -5.45,-4.21 -1.98,-1.02 -3.86,-1.53 -5.66,-1.53 -4.34,0 -7.72,1.91 -10.17,5.71 -2.45,3.79 -3.67,9.07 -3.67,15.85 0,7.22 1.15,12.8 3.43,16.7 2.29,3.91 5.54,5.85 9.77,5.85 1.98,0 3.94,-0.47 5.87,-1.43 1.94,-0.96 3.9,-2.44 5.88,-4.42zm56.77 -23.04c-0.15,-5.28 -1.31,-9.37 -3.49,-12.24 -2.18,-2.87 -5.25,-4.3 -9.19,-4.3 -3.47,0 -6.35,1.43 -8.64,4.3 -2.29,2.87 -3.81,6.97 -4.56,12.3l25.88 -0.06zm8.51 19.43l2.49 2.6c-2.94,4.05 -6.28,7.08 -10.02,9.09 -3.74,2.02 -7.85,3.04 -12.31,3.04 -7.47,0 -13.55,-2.49 -18.29,-7.48 -4.74,-4.98 -7.1,-11.32 -7.1,-19.02 0,-3.23 0.62,-6.48 1.83,-9.78 1.22,-3.29 2.95,-6.31 5.14,-9.05 2.45,-3.08 5.09,-5.34 7.92,-6.77 2.85,-1.44 6.05,-2.16 9.59,-2.16 6.39,0 11.6,2.23 15.63,6.68 4.05,4.45 6.18,10.32 6.39,17.58l-35.97 0.05c-0.03,0.35 -0.07,0.73 -0.09,1.11 -0.02,0.4 -0.02,0.96 -0.02,1.71 0,6.57 1.6,11.78 4.81,15.65 3.22,3.87 7.54,5.79 12.97,5.79 2.61,0 5.34,-0.74 8.14,-2.23 2.81,-1.49 5.77,-3.76 8.89,-6.81zm98.15 -9.79l3.14 2.29c-3.16,7.55 -7.19,13.2 -12.11,16.94 -4.9,3.74 -10.75,5.61 -17.52,5.61 -10.04,0 -18.11,-3.57 -24.21,-10.75 -6.1,-7.15 -9.15,-16.67 -9.15,-28.51 0,-5.73 0.89,-11.29 2.65,-16.63 1.78,-5.32 4.36,-10.2 7.72,-14.6 2.78,-3.61 6.03,-6.37 9.79,-8.26 3.75,-1.91 7.75,-2.85 11.98,-2.85 1.65,0 3.51,0.2 5.56,0.58 2.03,0.4 4.36,1 6.99,1.82l9.04 -2.4 7.5 19.46 -2.81 1.77c-4.76,-6.03 -9.14,-10.43 -13.12,-13.17 -3.99,-2.74 -7.93,-4.12 -11.83,-4.12 -6.74,0 -12.21,3.07 -16.38,9.21 -4.2,6.13 -6.29,14.27 -6.29,24.4 0,10.97 2.38,19.76 7.16,26.37 4.77,6.61 11.02,9.91 18.76,9.91 4.92,0 9.27,-1.4 13.05,-4.19 3.78,-2.82 7.14,-7.1 10.08,-12.88zm35.17 -26.16c-4.39,0 -7.95,2.21 -10.64,6.62 -2.7,4.43 -4.05,10.34 -4.05,17.73 0,7.1 1.29,12.73 3.85,16.85 2.58,4.12 6.05,6.17 10.41,6.17 4.3,0 7.7,-2.19 10.19,-6.61 2.5,-4.41 3.75,-10.46 3.75,-18.18 0,-7.13 -1.18,-12.69 -3.55,-16.65 -2.38,-3.96 -5.71,-5.93 -9.96,-5.93zm-24.31 23.66c0,-7.81 2.31,-14.26 6.94,-19.36 4.63,-5.1 10.46,-7.66 17.48,-7.66 6.63,0 12.2,2.61 16.71,7.84 4.5,5.23 6.75,11.69 6.75,19.39 0,7.63 -2.36,14.02 -7.1,19.18 -4.74,5.16 -10.58,7.74 -17.54,7.74 -6.59,0 -12.11,-2.58 -16.56,-7.74 -4.45,-5.16 -6.68,-11.62 -6.68,-19.39zm53.73 25.58l0 -3.78c2.87,-0.21 4.79,-0.83 5.79,-1.87 1,-1.01 1.49,-3.54 1.49,-7.53l0 -23.1c0,-3.58 -0.52,-5.88 -1.6,-6.92 -1.05,-1.01 -3.19,-1.65 -6.42,-1.9l0 -2.82 15.99 -5.12 0 8.95c3.6,-3.12 6.69,-5.32 9.28,-6.61 2.62,-1.27 5.18,-1.9 7.7,-1.9 4.69,0 8.08,1.61 10.21,4.86 2.12,3.25 3.19,8.48 3.19,15.73l0 20.57c0,3.38 0.46,5.47 1.37,6.3 0.9,0.84 2.74,1.29 5.5,1.36l0 3.78 -22.36 0 0.06 -3.83c2.94,-0.25 4.87,-0.82 5.76,-1.72 0.88,-0.91 1.32,-2.84 1.32,-5.78l0 -22.88c0,-4.36 -0.67,-7.48 -2,-9.4 -1.32,-1.91 -3.46,-2.87 -6.41,-2.87 -1.9,0 -3.96,0.54 -6.13,1.61 -2.18,1.09 -4.62,2.74 -7.27,4.98l0 26.6c0,4.47 0.44,7.15 1.31,8.05 0.87,0.9 2.61,1.39 5.23,1.46l0 3.78 -22.01 0zm64.05 -47.61l-7.72 0 0 -3.36c3.27,-0.74 5.97,-2.69 8.13,-5.81 2.17,-3.14 3.69,-7.35 4.58,-12.64l3.09 0 0 17.02 14.78 0 0 4.79 -14.78 0 0 33.16c0,3.32 0.56,5.85 1.67,7.53 1.12,1.71 2.81,2.56 5.08,2.56 1.24,0 2.56,-0.38 3.96,-1.16 1.4,-0.78 3.02,-2.05 4.81,-3.83l2.67 2.29c-1.81,2.8 -3.94,4.94 -6.37,6.41 -2.45,1.47 -5.14,2.2 -8.05,2.2 -4.14,0 -7.15,-1.2 -9.04,-3.62 -1.87,-2.41 -2.81,-6.34 -2.81,-11.75l0 -33.79zm28.45 2.49l0 -2.82 16.54 -5.1 0 11.53c3.24,-4.28 6.23,-7.44 9.01,-9.5 2.76,-2.03 5.45,-3.05 8.08,-3.05 2.23,0 3.94,0.51 5.1,1.51 1.18,1.02 1.77,2.49 1.77,4.4 0,1.45 -0.44,2.59 -1.31,3.43 -0.87,0.83 -2.07,1.25 -3.6,1.25 -1.05,0 -2.45,-0.33 -4.17,-0.98 -1.71,-0.65 -2.93,-0.98 -3.64,-0.98 -1.92,0 -3.75,0.71 -5.48,2.11 -1.74,1.39 -3.59,3.66 -5.54,6.82l0 23.41c0,4.43 0.62,7.08 1.84,7.95 1.21,0.88 4.01,1.31 8.39,1.31l1.21 0 0 3.83 -27.98 0 0 -3.83c3.3,-0.07 5.52,-0.64 6.64,-1.67 1.15,-1.05 1.71,-3.61 1.71,-7.7l0 -23.08c0,-3.49 -0.56,-5.77 -1.71,-6.9 -1.12,-1.13 -3.41,-1.76 -6.86,-1.94zm66.73 -4.12c-4.39,0 -7.95,2.21 -10.64,6.62 -2.7,4.43 -4.05,10.34 -4.05,17.73 0,7.1 1.29,12.73 3.85,16.85 2.58,4.12 6.05,6.17 10.41,6.17 4.3,0 7.7,-2.19 10.18,-6.61 2.51,-4.41 3.77,-10.46 3.77,-18.18 0,-7.13 -1.19,-12.69 -3.56,-16.65 -2.38,-3.96 -5.71,-5.93 -9.96,-5.93zm-24.31 23.66c0,-7.81 2.31,-14.26 6.94,-19.36 4.63,-5.1 10.46,-7.66 17.48,-7.66 6.63,0 12.21,2.61 16.71,7.84 4.5,5.23 6.75,11.69 6.75,19.39 0,7.63 -2.36,14.02 -7.1,19.18 -4.73,5.16 -10.58,7.74 -17.54,7.74 -6.59,0 -12.11,-2.58 -16.56,-7.74 -4.45,-5.16 -6.68,-11.62 -6.68,-19.39zm54.15 25.58l0.05 -3.83c2.84,-0.18 4.76,-0.78 5.78,-1.82 1,-1.01 1.51,-3.54 1.51,-7.55l0 -49.1c0,-3.4 -0.55,-5.67 -1.62,-6.77 -1.09,-1.13 -3.23,-1.82 -6.47,-2.11l0 -2.81 16.55 -5.22 0 66.23c0,4.12 0.45,6.65 1.36,7.61 0.89,0.96 2.63,1.49 5.17,1.59l0 3.78 -22.33 0zm65.86 -32.72c-0.15,-5.28 -1.31,-9.37 -3.49,-12.24 -2.18,-2.87 -5.25,-4.3 -9.19,-4.3 -3.46,0 -6.35,1.43 -8.64,4.3 -2.29,2.87 -3.81,6.97 -4.56,12.3l25.88 -0.06zm8.52 19.43l2.48 2.6c-2.94,4.05 -6.28,7.08 -10.02,9.09 -3.74,2.02 -7.85,3.04 -12.31,3.04 -7.46,0 -13.55,-2.49 -18.29,-7.48 -4.74,-4.98 -7.1,-11.32 -7.1,-19.02 0,-3.23 0.62,-6.48 1.84,-9.78 1.21,-3.29 2.94,-6.31 5.14,-9.05 2.45,-3.08 5.08,-5.34 7.91,-6.77 2.85,-1.44 6.05,-2.16 9.59,-2.16 6.39,0 11.6,2.23 15.63,6.68 4.05,4.45 6.18,10.32 6.4,17.58l-35.97 0.05c-0.04,0.35 -0.08,0.73 -0.1,1.11 -0.01,0.4 -0.01,0.96 -0.01,1.71 0,6.57 1.59,11.78 4.81,15.65 3.21,3.87 7.53,5.79 12.96,5.79 2.62,0 5.34,-0.74 8.14,-2.23 2.81,-1.49 5.77,-3.76 8.9,-6.81zm85.71 9.41l0 3.88 -5.02 0c-0.98,0 -2.14,0.04 -3.45,0.11 -1.3,0.07 -3.1,0.2 -5.37,0.42l-0.75 -6.18c-1.98,2.35 -4.19,4.13 -6.62,5.36 -2.44,1.22 -5,1.84 -7.69,1.84 -5.57,0 -10.36,-2.64 -14.41,-7.88 -4.05,-5.25 -6.07,-11.63 -6.07,-19.14 0,-7.89 1.94,-14.44 5.85,-19.69 3.9,-5.25 8.72,-7.88 14.42,-7.88 2.48,0 4.94,0.53 7.35,1.6 2.4,1.05 4.79,2.65 7.17,4.78l0 -15.64c0,-3.8 -0.52,-6.17 -1.59,-7.15 -1.06,-0.97 -3.31,-1.53 -6.7,-1.67l0 -2.87 16.54 -5.22 0 66.81c0,3.65 0.42,5.94 1.27,6.85 0.85,0.9 2.54,1.45 5.07,1.67zm-14.59 -5.8l0 -32.52c-1.67,-1.8 -3.48,-3.21 -5.44,-4.21 -1.98,-1.02 -3.87,-1.53 -5.67,-1.53 -4.34,0 -7.72,1.91 -10.17,5.71 -2.45,3.79 -3.67,9.07 -3.67,15.85 0,7.22 1.15,12.8 3.44,16.7 2.28,3.91 5.53,5.85 9.77,5.85 1.97,0 3.93,-0.47 5.86,-1.43 1.94,-0.96 3.9,-2.44 5.88,-4.42zm56.77 -23.04c-0.15,-5.28 -1.31,-9.37 -3.49,-12.24 -2.18,-2.87 -5.25,-4.3 -9.19,-4.3 -3.47,0 -6.35,1.43 -8.64,4.3 -2.29,2.87 -3.81,6.97 -4.56,12.3l25.88 -0.06zm8.52 19.43l2.48 2.6c-2.94,4.05 -6.28,7.08 -10.02,9.09 -3.74,2.02 -7.85,3.04 -12.31,3.04 -7.47,0 -13.55,-2.49 -18.29,-7.48 -4.74,-4.98 -7.1,-11.32 -7.1,-19.02 0,-3.23 0.62,-6.48 1.83,-9.78 1.22,-3.29 2.95,-6.31 5.14,-9.05 2.45,-3.08 5.09,-5.34 7.92,-6.77 2.85,-1.44 6.05,-2.16 9.59,-2.16 6.39,0 11.6,2.23 15.63,6.68 4.05,4.45 6.18,10.32 6.4,17.58l-35.98 0.05c-0.03,0.35 -0.07,0.73 -0.09,1.11 -0.02,0.4 -0.02,0.96 -0.02,1.71 0,6.57 1.6,11.78 4.82,15.65 3.21,3.87 7.53,5.79 12.96,5.79 2.62,0 5.34,-0.74 8.14,-2.23 2.81,-1.49 5.77,-3.76 8.9,-6.81zm85.9 4.25c2.91,-3.09 5.05,-7.08 6.43,-12.02 1.38,-4.92 2.07,-10.97 2.07,-18.14 0,-11.53 -1.96,-20.59 -5.86,-27.19 -3.91,-6.59 -9.28,-9.89 -16.09,-9.89 -7.19,0 -12.73,3.28 -16.63,9.84 -3.91,6.56 -5.87,15.93 -5.87,28.09 0,5.85 0.42,10.86 1.25,15.02 0.84,4.17 2.02,7.33 3.58,9.5 0.45,-2.73 1.67,-4.91 3.65,-6.52 1.96,-1.62 4.32,-2.42 7.1,-2.42 3.54,0 6.92,1.09 10.13,3.25 3.2,2.16 6.61,5.65 10.24,10.48zm20.38 13.09l1.74 2.07c-1.94,2.45 -4.08,4.29 -6.41,5.52 -2.32,1.25 -4.76,1.87 -7.32,1.87 -3.25,0 -6.03,-1.1 -8.3,-3.34 -2.27,-2.23 -3.99,-5.55 -5.21,-9.95 -1.12,0.53 -2.36,0.93 -3.72,1.18 -1.34,0.24 -2.87,0.36 -4.57,0.36 -4.07,0 -7.89,-0.7 -11.43,-2.1 -3.56,-1.4 -6.88,-3.54 -10,-6.41 -4.33,-4 -7.54,-8.61 -9.63,-13.8 -2.09,-5.2 -3.14,-11.21 -3.14,-18.02 0,-6.37 0.98,-12.2 2.92,-17.45 1.96,-5.25 4.87,-9.89 8.74,-13.92 3.1,-3.27 6.57,-5.76 10.39,-7.45 3.81,-1.71 7.79,-2.56 11.94,-2.56 4.25,0 8.32,0.91 12.21,2.74 3.88,1.82 7.57,4.54 11.04,8.17 3.34,3.51 5.92,7.92 7.77,13.24 1.83,5.32 2.76,11.08 2.76,17.23 0,7.43 -1.44,14.11 -4.29,20.07 -2.85,5.95 -6.9,10.71 -12.16,14.25 1.99,3.58 3.87,6.19 5.65,7.81 1.77,1.64 3.63,2.45 5.59,2.45 0.82,0 1.69,-0.16 2.59,-0.51 0.93,-0.32 1.88,-0.81 2.84,-1.45zm-26.82 -7.77c-0.93,-4.39 -2.67,-7.93 -5.27,-10.59 -2.58,-2.67 -5.5,-3.99 -8.77,-3.99 -2.09,0 -3.83,0.63 -5.21,1.92 -1.38,1.27 -2.07,2.85 -2.07,4.73 0,2.63 1.34,4.91 4.01,6.88 2.67,1.94 5.98,2.92 9.92,2.92 1.49,0 2.83,-0.15 4.05,-0.45 1.19,-0.31 2.32,-0.77 3.34,-1.42zm87.67 0.49l0 2.81 -16.05 0.95 0 -7.28c-3.42,2.94 -6.47,5.08 -9.16,6.41 -2.7,1.32 -5.3,1.99 -7.82,1.99 -4.72,0 -8.16,-1.59 -10.3,-4.81 -2.14,-3.21 -3.21,-8.41 -3.21,-15.56l0 -20.37c0,-3.38 -0.44,-5.47 -1.33,-6.29 -0.89,-0.81 -2.7,-1.27 -5.43,-1.38l0 -2.81 15.27 -3.47 0 36.5c0,4.25 0.68,7.35 2,9.28 1.33,1.94 3.45,2.9 6.36,2.9 1.87,0 3.87,-0.52 5.97,-1.56 2.11,-1.05 4.56,-2.74 7.32,-5.08l0 -27.24c0,-4.01 -0.44,-6.43 -1.33,-7.26 -0.89,-0.84 -2.87,-1.26 -5.95,-1.26l0 -2.81 15.58 -3.47 0 41.08c0,3.41 0.52,5.66 1.6,6.75 1.05,1.11 3.21,1.76 6.48,1.98zm33.1 -5.92l0 -18.83c-6.21,1.78 -10.98,4.12 -14.31,7.08 -3.34,2.94 -5.01,6.23 -5.01,9.88 0,2.34 0.71,4.23 2.13,5.65 1.41,1.41 3.34,2.12 5.75,2.12 1.49,0 3.16,-0.49 5.03,-1.45 1.85,-0.98 4,-2.47 6.41,-4.45zm13.84 3.52l2.18 2.13c-1.2,1.69 -2.54,2.96 -4,3.79 -1.45,0.84 -3.07,1.26 -4.83,1.26 -1.96,0 -3.5,-0.55 -4.63,-1.62 -1.14,-1.09 -1.92,-2.76 -2.34,-5.03 -2.2,2.12 -4.67,3.74 -7.37,4.87 -2.73,1.1 -5.6,1.67 -8.65,1.67 -3.97,0 -7.19,-1.13 -9.64,-3.38 -2.45,-2.25 -3.67,-5.21 -3.67,-8.86 0,-4.62 2.36,-8.63 7.1,-12.04 4.74,-3.43 12.08,-6.41 22.01,-8.97l0 -5.8c0,-3.83 -0.67,-6.66 -2.01,-8.53 -1.37,-1.87 -3.42,-2.79 -6.18,-2.79 -2.03,0 -3.58,0.38 -4.66,1.14 -1.08,0.76 -2.15,2.41 -3.16,4.97 -1,2.38 -1.93,3.91 -2.78,4.58 -0.84,0.67 -2,1.02 -3.45,1.02 -1.49,0 -2.71,-0.46 -3.67,-1.37 -0.96,-0.9 -1.43,-2.07 -1.43,-3.48 0,-2.8 1.85,-5.25 5.53,-7.37 3.69,-2.11 8.23,-3.16 13.62,-3.16 6.18,0 10.46,1.16 12.9,3.5 2.43,2.34 3.65,6.52 3.65,12.51l0 29.09c0,1.53 0.14,2.56 0.41,3.09 0.29,0.53 0.76,0.8 1.46,0.8 0.41,0 0.89,-0.15 1.43,-0.45 0.53,-0.31 1.25,-0.82 2.18,-1.57zm6.26 5.63l0.06 -3.83c2.83,-0.18 4.75,-0.78 5.77,-1.82 1,-1.01 1.51,-3.54 1.51,-7.55l0 -49.1c0,-3.4 -0.54,-5.67 -1.62,-6.77 -1.09,-1.13 -3.23,-1.82 -6.46,-2.11l0 -2.81 16.54 -5.22 0 66.23c0,4.12 0.46,6.65 1.36,7.61 0.89,0.96 2.64,1.49 5.18,1.59l0 3.78 -22.34 0zm34.36 -74.65c0,-1.63 0.56,-2.99 1.67,-4.08 1.13,-1.11 2.51,-1.66 4.18,-1.66 1.67,0 3.06,0.55 4.19,1.66 1.15,1.09 1.71,2.45 1.71,4.08 0,1.71 -0.56,3.16 -1.71,4.34 -1.13,1.18 -2.52,1.78 -4.19,1.78 -1.67,0 -3.05,-0.58 -4.18,-1.76 -1.11,-1.16 -1.67,-2.62 -1.67,-4.36zm10.11 22.25l0 39.42c0,4.16 0.44,6.7 1.33,7.66 0.89,0.96 2.63,1.47 5.21,1.54l0 3.78 -22.44 0 0.05 -3.83c2.83,-0.18 4.76,-0.78 5.78,-1.82 0.99,-1.01 1.5,-3.54 1.5,-7.55l0 -22.46c0,-3.47 -0.52,-5.76 -1.56,-6.86 -1.05,-1.09 -3.18,-1.75 -6.41,-1.97l0 -2.81 16.54 -5.1zm62.25 48.52l0 3.88 -5.01 0c-0.98,0 -2.14,0.04 -3.45,0.11 -1.31,0.07 -3.11,0.2 -5.38,0.42l-0.74 -6.18c-1.98,2.35 -4.2,4.13 -6.63,5.36 -2.43,1.22 -4.99,1.84 -7.68,1.84 -5.57,0 -10.37,-2.64 -14.42,-7.88 -4.05,-5.25 -6.06,-11.63 -6.06,-19.14 0,-7.89 1.94,-14.44 5.84,-19.69 3.91,-5.25 8.72,-7.88 14.42,-7.88 2.49,0 4.94,0.53 7.36,1.6 2.39,1.05 4.79,2.65 7.17,4.78l0 -15.64c0,-3.8 -0.53,-6.17 -1.6,-7.15 -1.05,-0.97 -3.3,-1.53 -6.7,-1.67l0 -2.87 16.54 -5.22 0 66.81c0,3.65 0.42,5.94 1.28,6.85 0.85,0.9 2.54,1.45 5.06,1.67zm-14.58 -5.8l0 -32.52c-1.67,-1.8 -3.49,-3.21 -5.45,-4.21 -1.98,-1.02 -3.87,-1.53 -5.66,-1.53 -4.34,0 -7.72,1.91 -10.17,5.71 -2.45,3.79 -3.67,9.07 -3.67,15.85 0,7.22 1.14,12.8 3.43,16.7 2.29,3.91 5.54,5.85 9.77,5.85 1.98,0 3.94,-0.47 5.87,-1.43 1.94,-0.96 3.9,-2.44 5.88,-4.42zm47.72 0.53l0 -18.83c-6.21,1.78 -10.99,4.12 -14.31,7.08 -3.34,2.94 -5.01,6.23 -5.01,9.88 0,2.34 0.71,4.23 2.12,5.65 1.42,1.41 3.35,2.12 5.76,2.12 1.49,0 3.16,-0.49 5.03,-1.45 1.85,-0.98 3.99,-2.47 6.41,-4.45zm13.84 3.52l2.18 2.13c-1.2,1.69 -2.54,2.96 -4,3.79 -1.45,0.84 -3.07,1.26 -4.83,1.26 -1.96,0 -3.5,-0.55 -4.63,-1.62 -1.14,-1.09 -1.92,-2.76 -2.34,-5.03 -2.2,2.12 -4.67,3.74 -7.37,4.87 -2.73,1.1 -5.6,1.67 -8.65,1.67 -3.97,0 -7.19,-1.13 -9.64,-3.38 -2.45,-2.25 -3.67,-5.21 -3.67,-8.86 0,-4.62 2.36,-8.63 7.1,-12.04 4.74,-3.43 12.08,-6.41 22.01,-8.97l0 -5.8c0,-3.83 -0.67,-6.66 -2.01,-8.53 -1.37,-1.87 -3.42,-2.79 -6.18,-2.79 -2.03,0 -3.58,0.38 -4.66,1.14 -1.08,0.76 -2.15,2.41 -3.16,4.97 -1,2.38 -1.93,3.91 -2.78,4.58 -0.84,0.67 -2,1.02 -3.45,1.02 -1.49,0 -2.71,-0.46 -3.67,-1.37 -0.96,-0.9 -1.44,-2.07 -1.44,-3.48 0,-2.8 1.86,-5.25 5.54,-7.37 3.69,-2.11 8.23,-3.16 13.62,-3.16 6.18,0 10.46,1.16 12.89,3.5 2.44,2.34 3.65,6.52 3.65,12.51l0 29.09c0,1.53 0.15,2.56 0.42,3.09 0.29,0.53 0.76,0.8 1.45,0.8 0.42,0 0.89,-0.15 1.44,-0.45 0.53,-0.31 1.25,-0.82 2.18,-1.57zm55.85 1.75l0 3.88 -5.01 0c-0.98,0 -2.14,0.04 -3.45,0.11 -1.31,0.07 -3.1,0.2 -5.37,0.42l-0.75 -6.18c-1.98,2.35 -4.19,4.13 -6.62,5.36 -2.44,1.22 -5,1.84 -7.69,1.84 -5.57,0 -10.37,-2.64 -14.41,-7.88 -4.05,-5.25 -6.07,-11.63 -6.07,-19.14 0,-7.89 1.94,-14.44 5.85,-19.69 3.9,-5.25 8.71,-7.88 14.41,-7.88 2.49,0 4.95,0.53 7.36,1.6 2.4,1.05 4.79,2.65 7.17,4.78l0 -15.64c0,-3.8 -0.52,-6.17 -1.6,-7.15 -1.05,-0.97 -3.3,-1.53 -6.7,-1.67l0 -2.87 16.55 -5.22 0 66.81c0,3.65 0.41,5.94 1.27,6.85 0.85,0.9 2.54,1.45 5.06,1.67zm-14.58 -5.8l0 -32.52c-1.67,-1.8 -3.48,-3.21 -5.44,-4.21 -1.98,-1.02 -3.87,-1.53 -5.67,-1.53 -4.34,0 -7.72,1.91 -10.17,5.71 -2.45,3.79 -3.67,9.07 -3.67,15.85 0,7.22 1.15,12.8 3.43,16.7 2.29,3.91 5.54,5.85 9.77,5.85 1.98,0 3.94,-0.47 5.87,-1.43 1.94,-0.96 3.9,-2.44 5.88,-4.42zm56.77 -23.04c-0.15,-5.28 -1.31,-9.37 -3.49,-12.24 -2.18,-2.87 -5.25,-4.3 -9.19,-4.3 -3.47,0 -6.35,1.43 -8.64,4.3 -2.29,2.87 -3.81,6.97 -4.56,12.3l25.88 -0.06zm8.51 19.43l2.49 2.6c-2.94,4.05 -6.28,7.08 -10.02,9.09 -3.74,2.02 -7.85,3.04 -12.31,3.04 -7.47,0 -13.55,-2.49 -18.29,-7.48 -4.74,-4.98 -7.1,-11.32 -7.1,-19.02 0,-3.23 0.62,-6.48 1.83,-9.78 1.22,-3.29 2.95,-6.31 5.14,-9.05 2.45,-3.08 5.09,-5.34 7.92,-6.77 2.85,-1.44 6.05,-2.16 9.59,-2.16 6.39,0 11.6,2.23 15.63,6.68 4.05,4.45 6.18,10.32 6.39,17.58l-35.97 0.05c-0.03,0.35 -0.07,0.73 -0.09,1.11 -0.02,0.4 -0.02,0.96 -0.02,1.71 0,6.57 1.6,11.78 4.82,15.65 3.21,3.87 7.53,5.79 12.96,5.79 2.62,0 5.34,-0.74 8.14,-2.23 2.81,-1.49 5.77,-3.76 8.89,-6.81z"
   id="path100" />
   </g>
   <path
   class="fil2"
   d="m 1167.42,173.99 c 0.5,0.02 1.04,0.06 1.56,0.08 0.52,0.02 1.08,0.02 1.66,0.02 3.68,0 6.52,-0.74 8.54,-2.24 2,-1.48 3,-3.6 3,-6.32 0,-2.36 -0.86,-4.3 -2.6,-5.76 -1.74,-1.46 -4.06,-2.18 -7.02,-2.18 -1.7,0 -2.98,0.3 -3.84,0.92 -0.88,0.6 -1.3,1.48 -1.3,2.62 z m -12.78,-18.3 h 19.3 c 4.8,0 8.6,0.88 11.4,2.68 2.8,1.78 4.18,4.16 4.18,7.16 0,2.5 -1.12,4.54 -3.4,6.1 -2.28,1.58 -5.82,2.8 -10.66,3.68 3.04,0.96 5.38,2.22 6.96,3.8 1.62,1.6 2.76,3.78 3.48,6.56 0.22,0.72 0.38,1.76 0.54,3.1 0.42,2.88 1.4,4.32 2.9,4.32 1.04,0 1.84,-0.56 2.44,-1.68 0.56,-1.12 0.86,-2.74 0.86,-4.88 h 2.1 v 0.58 c 0,2.88 -0.66,5.08 -1.98,6.56 -1.32,1.5 -3.28,2.24 -5.86,2.24 -1.52,0 -2.78,-0.3 -3.86,-0.84 -1.06,-0.56 -1.86,-1.38 -2.38,-2.42 -0.58,-1.3 -0.94,-3.16 -1.02,-5.56 -0.1,-2.4 -0.24,-3.96 -0.44,-4.68 -0.66,-2.22 -1.82,-3.86 -3.46,-4.92 -1.66,-1.06 -3.88,-1.6 -6.7,-1.6 h -1.62 v 12.16 c 0,1.76 0.42,3 1.3,3.68 0.86,0.7 2.48,1.12 4.82,1.26 v 2 h -18.9 v -2 c 2.36,-0.1 3.98,-0.5 4.9,-1.22 0.88,-0.7 1.34,-1.94 1.34,-3.72 v -25.32 c 0,-1.78 -0.42,-3.02 -1.28,-3.7 -0.86,-0.7 -2.5,-1.1 -4.96,-1.24 z m 18.42,-10.26 c -4,0 -7.84,0.78 -11.58,2.34 -3.74,1.58 -7.04,3.8 -9.92,6.72 -2.88,2.9 -5.08,6.2 -6.6,9.92 -1.52,3.7 -2.28,7.58 -2.28,11.64 0,4.14 0.76,8.04 2.28,11.7 1.52,3.66 3.74,6.94 6.7,9.84 2.88,2.9 6.14,5.12 9.76,6.62 3.6,1.5 7.44,2.26 11.56,2.26 4.12,0 7.96,-0.76 11.58,-2.26 3.64,-1.5 6.86,-3.72 9.72,-6.62 2.88,-2.92 5.08,-6.24 6.62,-9.94 1.54,-3.7 2.3,-7.56 2.3,-11.6 0,-4.06 -0.76,-8 -2.32,-11.84 -1.56,-3.82 -3.72,-7.1 -6.5,-9.82 -2.82,-2.84 -6.1,-5.04 -9.86,-6.62 -3.74,-1.56 -7.56,-2.34 -11.46,-2.34 z m 0,-4.02 c 4.52,0 8.92,0.88 13.18,2.64 4.28,1.78 8.02,4.26 11.22,7.46 3.18,3.18 5.62,6.92 7.36,11.2 1.74,4.28 2.6,8.74 2.6,13.36 0,4.48 -0.9,8.86 -2.72,13.12 -1.82,4.28 -4.4,8.08 -7.72,11.42 -3.24,3.26 -6.92,5.7 -11.04,7.38 -4.1,1.66 -8.52,2.5 -13.26,2.5 -4.5,0 -8.78,-0.86 -12.92,-2.58 -4.14,-1.72 -7.84,-4.22 -11.16,-7.5 -3.3,-3.26 -5.8,-6.98 -7.54,-11.14 -1.74,-4.16 -2.6,-8.58 -2.6,-13.3 0,-4.58 0.86,-8.98 2.6,-13.18 1.74,-4.2 4.22,-7.96 7.46,-11.28 3.2,-3.24 6.94,-5.72 11.18,-7.48 4.26,-1.74 8.72,-2.62 13.36,-2.62 z"
   id="path104"
   inkscape:connector-curvature="0"
   style="fill:#204d77;fill-rule:nonzero;stroke-width:2" />
  </g>
 </g>
</svg>
